<svg viewBox="0 0 73 73" fill="none" xmlns="http://www.w3.org/2000/svg">
  <path fill="#fff" d="M0 0h73v73H0z"/>
  <path d="M44.12 13.07a3.56 3.56 0 0 0-3.36 2.29l-10.3 27.13-5.56-20.7a3.56 3.56 0 0 0-4.35-2.52l-.67.18c-1.88.5-3 2.45-2.5 4.35l8.98 33.5a3.56 3.56 0 0 0 4.34 2.51l.67-.18a3.56 3.56 0 0 0 2.5-4.35l-.42-1.63 4.3-10.8 11.59 10.31c.9.8 2.1 1.1 3.27.79l.5-.14a3.5 3.5 0 0 0 2.51-2.57 3.54 3.54 0 0 0-1.01-3.46L40.93 34.96l6.49-17.03a3.54 3.54 0 0 0-.69-3.66l-.02-.01a3.48 3.48 0 0 0-2.59-1.2z" fill="#423a62"/>
</svg>
